<svg xmlns="http://www.w3.org/2000/svg" version="1.1" xmlns:xlink="http://www.w3.org/1999/xlink" xmlns:svgjs="http://svgjs.com/svgjs" width="1920" height="1080" preserveAspectRatio="none" viewBox="0 0 1920 1080"><g mask="url(&quot;#SvgjsMask1041&quot;)" fill="none"><rect width="1920" height="1080" x="0" y="0" fill="rgba(41, 43, 72, 1)"></rect><path d="M0,616.581C125.195,644.078,259.348,638.59,375.34,584.04C499.467,525.665,637.514,438.12,665.155,303.766C693.101,167.93,562.172,55.322,510.601,-73.413C473.123,-166.968,456.137,-263.671,403.428,-349.572C342.019,-449.651,289.754,-571.176,179.836,-612.465C68.774,-654.183,-49.535,-588.83,-165.38,-563.234C-290.545,-535.578,-449.353,-558.603,-526.669,-456.361C-604.596,-353.311,-524.767,-205.593,-533.315,-76.679C-541.001,39.23,-625.086,157.799,-574.32,262.283C-523.55,366.774,-381.359,378.564,-282.487,439.558C-185.956,499.108,-110.78,592.25,0,616.581" fill="#21223a"></path><path d="M1920 1860.118C2065.766 1842.5439999999999 2196.944 1782.1770000000001 2324.203 1708.953 2457.457 1632.279 2613.978 1565.924 2675.869 1425.194 2737.589 1284.852 2668.908 1127.214 2646.759 975.508 2624.663 824.17 2658.4139999999998 641.323 2546.243 537.357 2433.469 432.83299999999997 2251.196 494.04999999999995 2099.592 468.36699999999996 1969.897 446.395 1845.494 359.36 1719.5430000000001 397.30600000000004 1593.766 435.19899999999996 1518.876 559.38 1442.575 666.309 1372.325 764.759 1327.2759999999998 873.406 1296.379 990.337 1261.891 1120.857 1228.3339999999998 1251.951 1252.742 1384.726 1281.7820000000002 1542.699 1317.087 1721.399 1447.902 1814.5990000000002 1579.3229999999999 1908.231 1759.796 1879.432 1920 1860.118" fill="#313456"></path></g><defs><mask id="SvgjsMask1041"><rect width="1920" height="1080" fill="#ffffff"></rect></mask></defs></svg>