<svg xmlns="http://www.w3.org/2000/svg" version="1.1" xmlns:xlink="http://www.w3.org/1999/xlink" xmlns:svgjs="http://svgjs.com/svgjs" width="320" height="580" preserveAspectRatio="none" viewBox="0 0 320 580"><g mask="url(&quot;#SvgjsMask1026&quot;)" fill="none"><rect width="320" height="580" x="0" y="0" fill="rgba(41, 43, 72, 1)"></rect><path d="M0,176.175C32.739,176.289,63.183,158.089,87.537,136.21C109.757,116.248,116.6,86.064,130.013,59.375C144.044,31.456,174.347,6.449,168.141,-24.175C161.898,-54.983,120.668,-62.969,100.358,-86.961C79.693,-111.372,79.045,-155.707,48.571,-165.418C18.238,-175.084,-9.438,-144.151,-38.53,-131.221C-63.352,-120.189,-91.957,-115.623,-109.712,-95.066C-127.455,-74.523,-129.152,-45.911,-135.09,-19.423C-141.548,9.383,-154.69,38.459,-145.968,66.662C-136.858,96.119,-111.81,117.099,-87.147,135.603C-60.986,155.23,-32.705,176.062,0,176.175" fill="#21223a"></path><path d="M320 847.429C369.171 843.887 403.109 797.528 436.473 761.236 463.374 731.975 473.698 693.737 493.158 659.078 514.84 620.462 561.914 589.922 557.3969999999999 545.867 552.8969999999999 501.98 505.478 476.891 471.581 448.654 442.46500000000003 424.4 409.65999999999997 408.324 374.707 393.68399999999997 335.424 377.231 295.46 345.27099999999996 254.769 357.845 214.05700000000002 370.425 206.389 425.372 175.884 455.123 141.309 488.842 76.05199999999999 496.358 64.62899999999999 543.283 53.403999999999996 589.394 101.053 627.938 123.65700000000001 669.667 144.546 708.231 159.706 749.395 192.219 778.831 228.798 811.948 270.78499999999997 850.9739999999999 320 847.429" fill="#313456"></path></g><defs><mask id="SvgjsMask1026"><rect width="320" height="580" fill="#ffffff"></rect></mask></defs></svg>