<svg width="221" height="96" viewBox="0 0 221 96" fill="none" xmlns="http://www.w3.org/2000/svg">
<path fill-rule="evenodd" clip-rule="evenodd" d="M0.0874842 83.5428C5.3664 56.6548 26.789 20.6908 47.7941 1.24527C49.5742 -0.402625 52.2861 -0.416615 54.083 1.21294C60.672 7.18848 67.23 14.6999 73.3162 23.0312L36.2217 95.0297C24.2904 94.0328 12.7986 91.9545 3.17955 88.7949C0.96098 88.0661 -0.362395 85.8342 0.0874842 83.5428ZM54.9961 95.7076C71.6736 95.5297 87.7601 93.2633 99.4088 88.9085C101.518 88.1201 102.7 85.9326 102.249 83.7268C99.4477 70.0227 92.732 54.194 84.0245 39.3651L54.9961 95.7076Z" fill="#4757EE"/>
<path d="M140.344 65.869C138.637 65.869 137.01 65.6023 135.464 65.069C133.917 64.5357 132.57 63.789 131.424 62.829C130.277 61.869 129.437 60.7623 128.904 59.509C128.637 58.949 128.637 58.429 128.904 57.949C129.197 57.469 129.677 57.1623 130.344 57.029C130.824 56.9223 131.29 57.0023 131.744 57.269C132.224 57.509 132.584 57.8823 132.824 58.389C133.144 59.0557 133.664 59.669 134.384 60.229C135.13 60.789 136.024 61.2423 137.064 61.589C138.104 61.9357 139.197 62.109 140.344 62.109C141.624 62.109 142.797 61.909 143.864 61.509C144.957 61.109 145.837 60.5357 146.504 59.789C147.17 59.0157 147.504 58.069 147.504 56.949C147.504 55.5357 146.944 54.269 145.824 53.149C144.73 52.029 142.917 51.3357 140.384 51.069C137.077 50.749 134.477 49.7757 132.584 48.149C130.69 46.5223 129.744 44.509 129.744 42.109C129.744 40.349 130.237 38.8557 131.224 37.629C132.21 36.4023 133.544 35.469 135.224 34.829C136.93 34.189 138.824 33.869 140.904 33.869C142.53 33.869 143.944 34.0957 145.144 34.549C146.37 35.0023 147.437 35.629 148.344 36.429C149.25 37.229 150.037 38.1757 150.704 39.269C151.077 39.8557 151.224 40.4157 151.144 40.949C151.09 41.4557 150.837 41.8557 150.384 42.149C149.877 42.469 149.33 42.5357 148.744 42.349C148.157 42.1623 147.717 41.8157 147.424 41.309C146.997 40.5357 146.477 39.8823 145.864 39.349C145.25 38.8157 144.53 38.4023 143.704 38.109C142.877 37.789 141.904 37.629 140.784 37.629C138.81 37.6023 137.157 37.9757 135.824 38.749C134.49 39.4957 133.824 40.6557 133.824 42.229C133.824 43.029 134.024 43.8023 134.424 44.549C134.85 45.269 135.61 45.8957 136.704 46.429C137.824 46.9623 139.424 47.3357 141.504 47.549C144.677 47.869 147.144 48.8423 148.904 50.469C150.69 52.069 151.584 54.189 151.584 56.829C151.584 58.349 151.264 59.669 150.624 60.789C150.01 61.909 149.17 62.8557 148.104 63.629C147.064 64.3757 145.864 64.9357 144.504 65.309C143.17 65.6823 141.784 65.869 140.344 65.869ZM167.483 65.629C165.323 65.629 163.416 65.1623 161.763 64.229C160.109 63.269 158.803 61.9623 157.843 60.309C156.909 58.629 156.443 56.709 156.443 54.549C156.443 52.3623 156.909 50.4423 157.843 48.789C158.803 47.109 160.109 45.8023 161.763 44.869C163.416 43.909 165.323 43.429 167.483 43.429C169.616 43.429 171.509 43.909 173.163 44.869C174.816 45.8023 176.109 47.109 177.043 48.789C178.003 50.4423 178.483 52.3623 178.483 54.549C178.483 56.709 178.016 58.629 177.083 60.309C176.149 61.9623 174.856 63.269 173.203 64.229C171.549 65.1623 169.643 65.629 167.483 65.629ZM167.483 62.029C168.869 62.029 170.096 61.709 171.163 61.069C172.229 60.429 173.056 59.549 173.643 58.429C174.256 57.309 174.563 56.0157 174.563 54.549C174.563 53.0823 174.256 51.789 173.643 50.669C173.056 49.5223 172.229 48.629 171.163 47.989C170.096 47.349 168.869 47.029 167.483 47.029C166.096 47.029 164.869 47.349 163.803 47.989C162.736 48.629 161.896 49.5223 161.283 50.669C160.669 51.789 160.363 53.0823 160.363 54.549C160.363 56.0157 160.669 57.309 161.283 58.429C161.896 59.549 162.736 60.429 163.803 61.069C164.869 61.709 166.096 62.029 167.483 62.029ZM189.755 65.469C188.582 65.469 187.542 65.149 186.635 64.509C185.728 63.869 185.022 63.0023 184.515 61.909C184.008 60.789 183.755 59.509 183.755 58.069V36.229C183.755 35.6423 183.942 35.1623 184.315 34.789C184.688 34.4157 185.168 34.229 185.755 34.229C186.342 34.229 186.822 34.4157 187.195 34.789C187.568 35.1623 187.755 35.6423 187.755 36.229V58.069C187.755 59.0557 187.942 59.869 188.315 60.509C188.688 61.149 189.168 61.469 189.755 61.469H190.755C191.288 61.469 191.715 61.6557 192.035 62.029C192.382 62.4023 192.555 62.8823 192.555 63.469C192.555 64.0557 192.302 64.5357 191.795 64.909C191.288 65.2823 190.635 65.469 189.835 65.469H189.755ZM205.747 65.669C203.907 65.669 202.254 65.2823 200.787 64.509C199.347 63.709 198.201 62.549 197.347 61.029C196.521 59.509 196.107 57.6423 196.107 55.429V45.589C196.107 45.0023 196.294 44.5223 196.667 44.149C197.067 43.749 197.561 43.549 198.147 43.549C198.734 43.549 199.214 43.749 199.587 44.149C199.987 44.5223 200.187 45.0023 200.187 45.589V55.429C200.187 56.9223 200.467 58.1623 201.027 59.149C201.587 60.109 202.347 60.829 203.307 61.309C204.267 61.7623 205.347 61.989 206.547 61.989C207.694 61.989 208.707 61.7623 209.587 61.309C210.494 60.8557 211.214 60.2423 211.747 59.469C212.281 58.6957 212.547 57.829 212.547 56.869H215.067C215.067 58.5223 214.654 60.0157 213.827 61.349C213.027 62.6823 211.921 63.7357 210.507 64.509C209.121 65.2823 207.534 65.669 205.747 65.669ZM214.587 65.469C214.001 65.469 213.507 65.2823 213.107 64.909C212.734 64.509 212.547 64.0157 212.547 63.429V45.589C212.547 44.9757 212.734 44.4823 213.107 44.109C213.507 43.7357 214.001 43.549 214.587 43.549C215.201 43.549 215.694 43.7357 216.067 44.109C216.441 44.4823 216.627 44.9757 216.627 45.589V63.429C216.627 64.0157 216.441 64.509 216.067 64.909C215.694 65.2823 215.201 65.469 214.587 65.469Z" fill="#2D3778"/>
</svg>
