<svg width="110" height="50" viewBox="0 0 110 50" fill="none" xmlns="http://www.w3.org/2000/svg">
<path fill-rule="evenodd" clip-rule="evenodd" d="M0.0429097 42.899C2.63214 29.4139 13.1396 11.377 23.4423 1.62454C24.3154 0.798073 25.6456 0.791056 26.5269 1.60832C29.7587 4.60521 32.9753 8.37239 35.9605 12.5508L17.7662 48.66C11.9141 48.16 6.27754 47.1177 1.55952 45.5331C0.471347 45.1676 -0.17775 44.0482 0.0429097 42.899ZM26.9747 49C35.1548 48.9107 43.045 47.7741 48.7586 45.59C49.7929 45.1946 50.3728 44.0976 50.1516 42.9913C48.7777 36.1183 45.4837 28.1798 41.2128 20.7426L26.9747 49Z" fill="#4757EE"/>
<path d="M63.6281 35C62.5907 35 61.6018 34.8333 60.6616 34.5C59.7214 34.1667 58.9028 33.7 58.2058 33.1C57.5087 32.5 56.9981 31.8083 56.6739 31.025C56.5118 30.675 56.5118 30.35 56.6739 30.05C56.8522 29.75 57.144 29.5583 57.5492 29.475C57.841 29.4083 58.1247 29.4583 58.4003 29.625C58.6921 29.775 58.9109 30.0083 59.0568 30.325C59.2513 30.7417 59.5674 31.125 60.0051 31.475C60.459 31.825 61.0021 32.1083 61.6343 32.325C62.2665 32.5417 62.9311 32.65 63.6281 32.65C64.4062 32.65 65.1195 32.525 65.7679 32.275C66.4325 32.025 66.9675 31.6667 67.3727 31.2C67.778 30.7167 67.9806 30.125 67.9806 29.425C67.9806 28.5417 67.6402 27.75 66.9594 27.05C66.2947 26.35 65.1924 25.9167 63.6524 25.75C61.6424 25.55 60.0619 24.9417 58.9109 23.925C57.76 22.9083 57.1845 21.65 57.1845 20.15C57.1845 19.05 57.4844 18.1167 58.0842 17.35C58.684 16.5833 59.4945 16 60.5157 15.6C61.5532 15.2 62.7041 15 63.9686 15C64.9574 15 65.8165 15.1417 66.546 15.425C67.2917 15.7083 67.9401 16.1 68.4912 16.6C69.0424 17.1 69.5206 17.6917 69.9259 18.375C70.1528 18.7417 70.242 19.0917 70.1933 19.425C70.1609 19.7417 70.0069 19.9917 69.7313 20.175C69.4233 20.375 69.091 20.4167 68.7344 20.3C68.3778 20.1833 68.1103 19.9667 67.932 19.65C67.6726 19.1667 67.3565 18.7583 66.9837 18.425C66.6108 18.0917 66.1732 17.8333 65.6706 17.65C65.1681 17.45 64.5764 17.35 63.8956 17.35C62.696 17.3333 61.691 17.5667 60.8805 18.05C60.07 18.5167 59.6647 19.2417 59.6647 20.225C59.6647 20.725 59.7863 21.2083 60.0294 21.675C60.2888 22.125 60.7508 22.5167 61.4154 22.85C62.0963 23.1833 63.0689 23.4167 64.3333 23.55C66.2623 23.75 67.7618 24.3583 68.8317 25.375C69.9178 26.375 70.4608 27.7 70.4608 29.35C70.4608 30.3 70.2663 31.125 69.8772 31.825C69.5044 32.525 68.9938 33.1167 68.3454 33.6C67.7131 34.0667 66.9837 34.4167 66.157 34.65C65.3464 34.8833 64.5035 35 63.6281 35Z" fill="#2D3778"/>
<path d="M80.1257 34.85C78.8126 34.85 77.6536 34.5583 76.6485 33.975C75.6435 33.375 74.8492 32.5583 74.2656 31.525C73.6983 30.475 73.4146 29.275 73.4146 27.925C73.4146 26.5583 73.6983 25.3583 74.2656 24.325C74.8492 23.275 75.6435 22.4583 76.6485 21.875C77.6536 21.275 78.8126 20.975 80.1257 20.975C81.4225 20.975 82.5734 21.275 83.5785 21.875C84.5835 22.4583 85.3697 23.275 85.9371 24.325C86.5207 25.3583 86.8124 26.5583 86.8124 27.925C86.8124 29.275 86.5288 30.475 85.9614 31.525C85.394 32.5583 84.6078 33.375 83.6028 33.975C82.5977 34.5583 81.4387 34.85 80.1257 34.85ZM80.1257 32.6C80.9686 32.6 81.7143 32.4 82.3627 32C83.0111 31.6 83.5136 31.05 83.8703 30.35C84.2431 29.65 84.4295 28.8417 84.4295 27.925C84.4295 27.0083 84.2431 26.2 83.8703 25.5C83.5136 24.7833 83.0111 24.225 82.3627 23.825C81.7143 23.425 80.9686 23.225 80.1257 23.225C79.2827 23.225 78.5371 23.425 77.8886 23.825C77.2402 24.225 76.7296 24.7833 76.3568 25.5C75.9839 26.2 75.7975 27.0083 75.7975 27.925C75.7975 28.8417 75.9839 29.65 76.3568 30.35C76.7296 31.05 77.2402 31.6 77.8886 32C78.5371 32.4 79.2827 32.6 80.1257 32.6Z" fill="#2D3778"/>
<path d="M93.6647 34.75C92.9514 34.75 92.3192 34.55 91.7681 34.15C91.2169 33.75 90.7873 33.2083 90.4793 32.525C90.1713 31.825 90.0173 31.025 90.0173 30.125V16.475C90.0173 16.1083 90.1308 15.8083 90.3578 15.575C90.5847 15.3417 90.8765 15.225 91.2331 15.225C91.5898 15.225 91.8815 15.3417 92.1085 15.575C92.3354 15.8083 92.4489 16.1083 92.4489 16.475V30.125C92.4489 30.7417 92.5624 31.25 92.7893 31.65C93.0163 32.05 93.3081 32.25 93.6647 32.25H94.2726C94.5968 32.25 94.8561 32.3667 95.0507 32.6C95.2614 32.8333 95.3668 33.1333 95.3668 33.5C95.3668 33.8667 95.2128 34.1667 94.9048 34.4C94.5968 34.6333 94.1996 34.75 93.7133 34.75H93.6647Z" fill="#2D3778"/>
<path d="M103.386 34.875C102.268 34.875 101.263 34.6333 100.371 34.15C99.4957 33.65 98.7986 32.925 98.2799 31.975C97.7774 31.025 97.5261 29.8583 97.5261 28.475V22.325C97.5261 21.9583 97.6396 21.6583 97.8665 21.425C98.1097 21.175 98.4096 21.05 98.7662 21.05C99.1228 21.05 99.4146 21.175 99.6416 21.425C99.8847 21.6583 100.006 21.9583 100.006 22.325V28.475C100.006 29.4083 100.177 30.1833 100.517 30.8C100.857 31.4 101.319 31.85 101.903 32.15C102.486 32.4333 103.143 32.575 103.872 32.575C104.57 32.575 105.186 32.4333 105.72 32.15C106.272 31.8667 106.709 31.4833 107.033 31C107.358 30.5167 107.52 29.975 107.52 29.375H109.052C109.052 30.4083 108.8 31.3417 108.298 32.175C107.812 33.0083 107.139 33.6667 106.28 34.15C105.437 34.6333 104.472 34.875 103.386 34.875ZM108.76 34.75C108.403 34.75 108.103 34.6333 107.86 34.4C107.633 34.15 107.52 33.8417 107.52 33.475V22.325C107.52 21.9417 107.633 21.6333 107.86 21.4C108.103 21.1667 108.403 21.05 108.76 21.05C109.133 21.05 109.433 21.1667 109.66 21.4C109.887 21.6333 110 21.9417 110 22.325V33.475C110 33.8417 109.887 34.15 109.66 34.4C109.433 34.6333 109.133 34.75 108.76 34.75Z" fill="#2D3778"/>
</svg>
